<?xml version="1.0" encoding="UTF-8" standalone="no"?>
<!-- Created with Inkscape (http://www.inkscape.org/) -->

<svg
   width="800"
   height="600"
   viewBox="0 0 211.66666 158.75"
   version="1.1"
   id="svg5"
   inkscape:version="1.3 (0e150ed6c4, 2023-07-21)"
   sodipodi:docname="chienPart.svg"
   xmlns:inkscape="http://www.inkscape.org/namespaces/inkscape"
   xmlns:sodipodi="http://sodipodi.sourceforge.net/DTD/sodipodi-0.dtd"
   xmlns="http://www.w3.org/2000/svg"
   xmlns:svg="http://www.w3.org/2000/svg">
  <sodipodi:namedview
     id="namedview7"
     pagecolor="#ffffff"
     bordercolor="#666666"
     borderopacity="1.0"
     inkscape:pageshadow="2"
     inkscape:pageopacity="0.0"
     inkscape:pagecheckerboard="0"
     inkscape:document-units="mm"
     showgrid="false"
     units="px"
     inkscape:snap-global="false"
     showguides="false"
     inkscape:guide-bbox="true"
     inkscape:zoom="1.1347768"
     inkscape:cx="764.02689"
     inkscape:cy="247.18517"
     inkscape:window-width="1920"
     inkscape:window-height="1046"
     inkscape:window-x="-11"
     inkscape:window-y="-11"
     inkscape:window-maximized="1"
     inkscape:current-layer="layer6"
     inkscape:showpageshadow="2"
     inkscape:deskcolor="#d1d1d1">
    <sodipodi:guide
       position="205.20651,170.16751"
       orientation="1,0"
       id="guide875"
       inkscape:locked="false" />
  </sodipodi:namedview>
  <defs
     id="defs2">
    <filter
       inkscape:collect="always"
       style="color-interpolation-filters:sRGB"
       id="filter83766-0"
       x="-0.055832686"
       y="-0.024240254"
       width="1.1116654"
       height="1.0484805">
      <feGaussianBlur
         inkscape:collect="always"
         stdDeviation="0.042171828"
         id="feGaussianBlur83768-7" />
    </filter>
    <filter
       inkscape:collect="always"
       style="color-interpolation-filters:sRGB"
       id="filter83766-6"
       x="-0.11510178"
       y="-0.030322599"
       width="1.2302036"
       height="1.0606452">
      <feGaussianBlur
         inkscape:collect="always"
         stdDeviation="0.042171828"
         id="feGaussianBlur83768-9" />
    </filter>
  </defs>
  <g
     inkscape:groupmode="layer"
     id="layer6"
     inkscape:label="fond">
    <rect
       style="fill:#008000;fill-opacity:1;stroke-width:0.178613"
       id="rect4799"
       width="200.68147"
       height="46.882488"
       x="4.5063009"
       y="98.30265" />
    <rect
       style="fill:#00ffff;fill-opacity:1;stroke-width:0.25016"
       id="rect4903"
       width="189.47044"
       height="97.406075"
       x="6.7784848"
       y="5.656745" />
    <g
       id="g19594"
       transform="matrix(-1.8486507,-0.06365318,0,1.8486507,198.58222,27.656991)">
      <ellipse
         style="fill:#ab8d7f;fill-opacity:1;stroke:none;stroke-width:0.299358;stroke-opacity:1"
         id="path19486"
         cx="47.510529"
         cy="30.339331"
         rx="0.56126595"
         ry="1.1459181"
         transform="rotate(23.55062)" />
      <path
         style="fill:#ab8d7f;fill-opacity:1;stroke:none;stroke-width:0.264583px;stroke-linecap:butt;stroke-linejoin:miter;stroke-opacity:1"
         d="m 19.316905,42.843308 -0.701583,-0.07016 -0.608038,0.795126 h -0.818513 c -0.211227,0.08021 -0.561603,0.57787 -0.958829,1.216078 0.180907,0.576479 0.465243,0.641972 0.701582,0.35079 l 0.561266,-0.608037 0.771744,-0.327406 0.935443,-0.327406 z"
         id="path19291"
         sodipodi:nodetypes="cccccccccc" />
      <path
         style="fill:#6c4627;fill-opacity:1;stroke:none;stroke-width:0.264583px;stroke-linecap:butt;stroke-linejoin:miter;stroke-opacity:1"
         d="m 32.249408,36.903238 c 0.295206,0.383483 0.542404,0.77133 0.163703,1.216077 0.03546,1.119356 0.618115,1.136362 1.216075,1.122532 l -0.1637,-1.73057 c -0.377414,-0.510083 -0.776437,-0.782454 -1.216078,-0.608039 z"
         id="path14913"
         sodipodi:nodetypes="ccccc" />
      <path
         style="fill:#7e522d;fill-opacity:1;stroke:none;stroke-width:0.264583px;stroke-linecap:butt;stroke-linejoin:miter;stroke-opacity:1"
         d="m 19.457222,39.218461 c 0.270467,0.633795 0.408376,1.400147 1.333006,1.379779 1.690969,-0.39168 3.144596,-0.08916 4.794147,0.257247 2.672569,0.240176 4.001753,-0.230296 5.752977,-2.011203 l 1.075759,-0.724969 c 0.954662,0.08377 1.618759,0.491426 1.730574,1.309621 l 1.333008,0.795127 c -0.322277,0.608068 -0.42315,0.899502 -1.075762,0.958827 -0.896739,-0.3152 -1.462761,-0.525242 -2.291836,-0.140316 -0.453169,0.939059 -0.616877,1.908043 -0.77174,2.923259 l 0.724969,1.660414 1.683798,1.052372 c 0.716363,-0.04944 0.776122,0.03216 1.075759,0.631429 -0.313705,0.177481 -0.605252,0.406663 -1.099146,0.163703 L 32.74052,47.029415 c -1.48769,-0.633864 -3.059041,-1.014622 -4.30304,-2.057977 -0.962193,0.183565 -1.995004,-0.197815 -3.016804,-0.491106 -0.715428,-0.742374 -1.368715,-2.082157 -2.26845,-1.169305 l -0.491108,1.145918 c -0.789935,0.348144 -1.560419,0.890795 -2.408766,0.65481 -0.784134,-0.247168 -1.359571,-0.345266 -1.707184,-0.280633 -0.23812,0.626166 -0.502681,1.274995 -1.169305,2.26845 -0.303246,0.122408 -0.497927,-0.08088 -0.678196,-0.327403 l -0.116931,-0.584653 c -0.0016,-0.239411 0.144831,-0.445931 0.701583,-0.561266 0.07064,-0.610867 0.52498,-0.991514 0.888671,-1.426551 l 0.935443,-0.327406 0.467722,-2.011203 0.514494,-0.374177 c -0.431037,-0.09783 -0.807664,-0.340745 -1.052374,-0.935443 -0.08873,-0.978785 0.140122,-1.216529 0.420947,-1.333009 z"
         id="path4414"
         sodipodi:nodetypes="ccccccccccccccccccccccccccccccc" />
      <path
         style="fill:#c6ada0;fill-opacity:1;stroke:none;stroke-width:0.264583px;stroke-linecap:butt;stroke-linejoin:miter;stroke-opacity:1"
         d="m 20.790228,40.59824 c 1.690969,-0.39168 1.694659,2.015588 4.934464,1.379779 0.578657,0.391455 0.654471,0.443799 1.490455,0.982202 1.129935,0.727718 1.127825,-1.057018 1.295663,-0.835355 1.389605,1.835246 1.81698,0.465138 0.775724,-0.774077 -0.315474,-0.375451 0.449888,-0.804028 0.741197,-1.360587 1.071597,1.703157 3.969979,-0.28106 4.115954,-0.561266 l 1.333008,0.795127 c -0.322277,0.608068 -0.42315,0.899502 -1.075762,0.958827 -0.896739,-0.3152 -1.462761,-0.525242 -2.291836,-0.140316 -0.453169,0.939059 -0.616877,1.908043 -0.77174,2.923259 l 0.724969,1.660414 1.683798,1.052372 c 0.716363,-0.04944 0.776122,0.03216 1.075759,0.631429 -0.313705,0.177481 -0.605252,0.406663 -1.099146,0.163703 L 32.74052,47.029415 c -1.48769,-0.633864 -3.059041,-1.014622 -4.30304,-2.057977 -0.962193,0.183565 -1.995004,-0.197815 -3.016804,-0.491106 -0.715393,-0.741784 0.18443,-2.916777 -2.26845,-1.169305 l -0.491108,1.145918 c -0.789935,0.348144 -1.560419,0.890795 -2.408766,0.65481 -0.784134,-0.247168 -1.359571,-0.345266 -1.707184,-0.280633 -0.23812,0.626166 -0.502681,1.274995 -1.169305,2.26845 -0.303246,0.122408 -0.497927,-0.08088 -0.678196,-0.327403 l -0.116931,-0.584653 c -0.0016,-0.239411 0.144831,-0.445931 0.701583,-0.561266 0.07064,-0.610867 0.52498,-0.991514 0.888671,-1.426551 l 0.935443,-0.327406 0.467722,-2.011203 0.701583,0.748355 c 1.608439,0.716958 1.931394,-1.66732 0.51449,-2.011205 z"
         id="path6719"
         sodipodi:nodetypes="ccssscccccccccccccccccccccccccc" />
      <path
         style="fill:#744b29;fill-opacity:1;stroke:none;stroke-width:0.264583px;stroke-linecap:butt;stroke-linejoin:miter;stroke-opacity:1"
         d="m 30.534313,36.952989 c 0.396809,0.277034 0.749141,0.57266 0.52161,1.110659 0.370227,1.056952 0.931057,0.898063 1.497217,0.705164 l -0.67623,-1.601369 c -0.513265,-0.373075 -0.975698,-0.512934 -1.342597,-0.214454 z"
         id="path10956"
         sodipodi:nodetypes="ccccc" />
      <path
         style="fill:#372414;fill-opacity:1;stroke:none;stroke-width:0.093294;stroke-opacity:1"
         id="path15099-1"
         sodipodi:type="arc"
         sodipodi:cx="-44.226818"
         sodipodi:cy="26.736372"
         sodipodi:rx="0.25094178"
         sodipodi:ry="0.20665793"
         sodipodi:start="0"
         sodipodi:end="5.644783"
         sodipodi:arc-type="slice"
         transform="rotate(-99.441508)"
         d="m -43.975876,26.736372 a 0.25094178,0.20665793 0 0 1 -0.211061,0.204031 0.25094178,0.20665793 0 0 1 -0.278147,-0.13918 0.25094178,0.20665793 0 0 1 0.122653,-0.24827 0.25094178,0.20665793 0 0 1 0.317131,0.06027 l -0.201518,0.12315 z" />
      <path
         style="fill:#372414;fill-opacity:1;stroke:none;stroke-width:0.093294;stroke-opacity:1"
         id="path15323"
         sodipodi:type="arc"
         sodipodi:cx="-45.562321"
         sodipodi:cy="28.138231"
         sodipodi:rx="0.25094178"
         sodipodi:ry="0.20665793"
         sodipodi:start="0"
         sodipodi:end="5.644783"
         sodipodi:arc-type="slice"
         transform="rotate(-99.441508)"
         d="m -45.311379,28.138231 a 0.25094178,0.20665793 0 0 1 -0.211061,0.204032 0.25094178,0.20665793 0 0 1 -0.278147,-0.139181 0.25094178,0.20665793 0 0 1 0.122653,-0.248269 0.25094178,0.20665793 0 0 1 0.317132,0.06027 l -0.201519,0.12315 z" />
      <path
         id="path85949-3"
         style="fill:#7d512c;fill-opacity:1;stroke-width:0.184471;filter:url(#filter83766-0)"
         d="m 39.488636,25.097078 c -0.235892,0.202736 -0.0381,0.635186 -0.150225,1.262285 -0.09077,0.507649 -0.806137,-0.356941 0.0266,1.329169 0.0342,0.06924 -0.837052,1.408316 -0.815712,1.474131 0.13835,0.426797 1.375981,-0.660047 1.611874,-0.862783 0.491618,-2.270717 0.0069,-3.337692 -0.672537,-3.202802 z"
         sodipodi:nodetypes="cssscc"
         transform="matrix(-0.26666105,0,0,0.26666105,31.523038,36.746766)" />
      <path
         id="path83780"
         style="fill:#7d512c;fill-opacity:1;stroke-width:0.184471;filter:url(#filter83766-6)"
         d="m 39.488636,25.097078 c -0.235892,0.202736 -0.0381,0.635186 -0.150225,1.262285 -0.09077,0.507649 -0.06069,0.914704 0.0266,1.329169 0.01591,0.07557 0.01802,0.31207 0.03936,0.377885 0.13835,0.426797 0.520909,0.436199 0.756802,0.233463 0.0079,-1.422694 0.0068,-3.337481 -0.672537,-3.202802 z"
         sodipodi:nodetypes="cssscc"
         transform="matrix(-0.52889101,0,0,0.19342879,47.150009,38.145596)" />
      <path
         id="path83782"
         style="fill:#7d512c;fill-opacity:1;stroke-width:0.184471;filter:url(#filter83766-6)"
         d="m 39.488636,25.097078 c -0.235892,0.202736 -0.0381,0.635186 -0.150225,1.262285 -0.09077,0.507649 -0.06069,0.914704 0.0266,1.329169 0.01591,0.07557 0.01802,0.31207 0.03936,0.377885 0.13835,0.426797 0.520909,0.436199 0.756802,0.233463 0.0079,-1.422694 0.0068,-3.337481 -0.672537,-3.202802 z"
         sodipodi:nodetypes="cssscc"
         transform="matrix(-0.20197877,0,0,0.14585639,37.059955,40.33309)" />
      <path
         id="path83784"
         style="fill:#7d512c;fill-opacity:1;stroke-width:0.184471;filter:url(#filter83766-6)"
         d="m 39.488636,25.097078 c -0.235892,0.202736 -0.0381,0.635186 -0.150225,1.262285 -0.09077,0.507649 -0.06069,0.914704 0.0266,1.329169 0.01591,0.07557 0.01802,0.31207 0.03936,0.377885 0.13835,0.426797 0.520909,0.436199 0.756802,0.233463 0.0079,-1.422694 0.0068,-3.337481 -0.672537,-3.202802 z"
         sodipodi:nodetypes="cssscc"
         transform="matrix(-0.15147323,-0.1336087,-0.09648382,0.10938446,35.995012,46.451221)" />
      <path
         id="path83786"
         style="fill:#7d512c;fill-opacity:1;stroke-width:0.184471;filter:url(#filter83766-6)"
         d="m 39.488636,25.097078 c -0.235892,0.202736 -0.0381,0.635186 -0.150225,1.262285 -0.09077,0.507649 -0.06069,0.914704 0.0266,1.329169 0.01591,0.07557 0.01802,0.31207 0.03936,0.377885 0.13835,0.426797 0.520909,0.436199 0.756802,0.233463 0.0079,-1.422694 0.0068,-3.337481 -0.672537,-3.202802 z"
         sodipodi:nodetypes="cssscc"
         transform="matrix(-0.15147323,-0.1336087,-0.09648382,0.10938446,38.966213,47.660838)" />
      <path
         id="path15620"
         style="fill:#7d512c;fill-opacity:1;stroke-width:0.184471;filter:url(#filter83766-6)"
         d="m 39.488636,25.097078 c -0.235892,0.202736 -0.0381,0.635186 -0.150225,1.262285 -0.09077,0.507649 -0.06069,0.914704 0.0266,1.329169 0.01591,0.07557 0.01802,0.31207 0.03936,0.377885 0.13835,0.426797 0.520909,0.436199 0.756802,0.233463 0.0079,-1.422694 0.0068,-3.337481 -0.672537,-3.202802 z"
         sodipodi:nodetypes="cssscc"
         transform="matrix(-0.20197877,0,0,0.14585639,38.977614,39.304102)" />
      <path
         id="path15622"
         style="fill:#7d512c;fill-opacity:1;stroke-width:0.184471;filter:url(#filter83766-6)"
         d="m 39.488636,25.097078 c -0.235892,0.202736 -0.0381,0.635186 -0.150225,1.262285 -0.09077,0.507649 -0.06069,0.914704 0.0266,1.329169 0.01591,0.07557 0.01802,0.31207 0.03936,0.377885 0.13835,0.426797 0.520909,0.436199 0.756802,0.233463 0.0079,-1.422694 0.0068,-3.337481 -0.672537,-3.202802 z"
         sodipodi:nodetypes="cssscc"
         transform="matrix(-0.15147323,-0.1336087,-0.09648382,0.10938446,39.549697,44.252929)" />
      <path
         id="path15624"
         style="fill:#7d512c;fill-opacity:1;stroke-width:0.184471;filter:url(#filter83766-6)"
         d="m 39.488636,25.097078 c -0.235892,0.202736 -0.0381,0.635186 -0.150225,1.262285 -0.09077,0.507649 -0.06069,0.914704 0.0266,1.329169 0.01591,0.07557 0.01802,0.31207 0.03936,0.377885 0.13835,0.426797 0.520909,0.436199 0.756802,0.233463 0.0079,-1.422694 0.0068,-3.337481 -0.672537,-3.202802 z"
         sodipodi:nodetypes="cssscc"
         transform="matrix(-0.15147323,-0.1336087,-0.09648382,0.10938446,40.465257,48.157042)" />
      <path
         id="path15626"
         style="fill:#7d512c;fill-opacity:1;stroke-width:0.184471;filter:url(#filter83766-0)"
         d="m 39.488636,25.097078 c -0.235892,0.202736 -0.0381,0.635186 -0.150225,1.262285 -0.09077,0.507649 -0.806137,-0.356941 0.0266,1.329169 0.0342,0.06924 -0.837052,1.408316 -0.815712,1.474131 0.13835,0.426797 1.375981,-0.660047 1.611874,-0.862783 0.491618,-2.270717 0.0069,-3.337692 -0.672537,-3.202802 z"
         sodipodi:nodetypes="cssscc"
         transform="matrix(0.80193859,0,0,0.38307677,-9.0545684,32.47)" />
      <path
         id="path15628"
         style="fill:#7d512c;fill-opacity:1;stroke-width:0.184471;filter:url(#filter83766-6)"
         d="m 39.488636,25.097078 c -0.235892,0.202736 -0.0381,0.635186 -0.150225,1.262285 -0.09077,0.507649 -0.06069,0.914704 0.0266,1.329169 0.01591,0.07557 0.01802,0.31207 0.03936,0.377885 0.13835,0.426797 0.520909,0.436199 0.756802,0.233463 0.0079,-1.422694 0.0068,-3.337481 -0.672537,-3.202802 z"
         sodipodi:nodetypes="cssscc"
         transform="matrix(-0.52889101,0,0,0.19342879,49.628934,37.888349)" />
      <path
         id="path15630"
         style="fill:#7d512c;fill-opacity:1;stroke-width:0.184471;filter:url(#filter83766-6)"
         d="m 39.488636,25.097078 c -0.235892,0.202736 -0.0381,0.635186 -0.150225,1.262285 -0.09077,0.507649 -0.06069,0.914704 0.0266,1.329169 0.01591,0.07557 0.01802,0.31207 0.03936,0.377885 0.13835,0.426797 0.520909,0.436199 0.756802,0.233463 0.0079,-1.422694 0.0068,-3.337481 -0.672537,-3.202802 z"
         sodipodi:nodetypes="cssscc"
         transform="matrix(-0.52889101,0,0,0.19342879,51.032099,35.97069)" />
      <path
         id="path15632"
         style="fill:#7d512c;fill-opacity:1;stroke-width:0.184471;filter:url(#filter83766-6)"
         d="m 39.488636,25.097078 c -0.235892,0.202736 -0.0381,0.635186 -0.150225,1.262285 -0.09077,0.507649 -0.06069,0.914704 0.0266,1.329169 0.01591,0.07557 0.01802,0.31207 0.03936,0.377885 0.13835,0.426797 0.520909,0.436199 0.756802,0.233463 0.0079,-1.422694 0.0068,-3.337481 -0.672537,-3.202802 z"
         sodipodi:nodetypes="cssscc"
         transform="matrix(-0.15147323,-0.1336087,-0.09648382,0.10938446,42.566502,42.826378)" />
      <path
         id="path15634"
         style="fill:#7d512c;fill-opacity:1;stroke-width:0.184471;filter:url(#filter83766-6)"
         d="m 39.488636,25.097078 c -0.235892,0.202736 -0.0381,0.635186 -0.150225,1.262285 -0.09077,0.507649 -0.06069,0.914704 0.0266,1.329169 0.01591,0.07557 0.01802,0.31207 0.03936,0.377885 0.13835,0.426797 0.520909,0.436199 0.756802,0.233463 0.0079,-1.422694 0.0068,-3.337481 -0.672537,-3.202802 z"
         sodipodi:nodetypes="cssscc"
         transform="matrix(-0.06433892,-0.03124845,-0.04098193,0.02558287,37.658083,40.61985)" />
      <path
         id="path15636"
         style="fill:#7d512c;fill-opacity:1;stroke-width:0.184471;filter:url(#filter83766-6)"
         d="m 39.488636,25.097078 c -0.235892,0.202736 -0.0381,0.635186 -0.150225,1.262285 -0.09077,0.507649 -0.06069,0.914704 0.0266,1.329169 0.01591,0.07557 0.01802,0.31207 0.03936,0.377885 0.13835,0.426797 0.520909,0.436199 0.756802,0.233463 0.0079,-1.422694 0.0068,-3.337481 -0.672537,-3.202802 z"
         sodipodi:nodetypes="cssscc"
         transform="matrix(-0.06433892,-0.03124845,-0.04098193,0.02558287,38.16673,41.108034)" />
      <path
         id="path15638"
         style="fill:#7d512c;fill-opacity:1;stroke-width:0.184471;filter:url(#filter83766-6)"
         d="m 39.488636,25.097078 c -0.235892,0.202736 -0.0381,0.635186 -0.150225,1.262285 -0.09077,0.507649 -0.06069,0.914704 0.0266,1.329169 0.01591,0.07557 0.01802,0.31207 0.03936,0.377885 0.13835,0.426797 0.520909,0.436199 0.756802,0.233463 0.0079,-1.422694 0.0068,-3.337481 -0.672537,-3.202802 z"
         sodipodi:nodetypes="cssscc"
         transform="matrix(-0.06433892,-0.03124845,-0.04098193,0.02558287,38.193039,40.570154)" />
      <path
         id="path15640"
         style="fill:#7d512c;fill-opacity:1;stroke-width:0.184471;filter:url(#filter83766-6)"
         d="m 39.488636,25.097078 c -0.235892,0.202736 -0.0381,0.635186 -0.150225,1.262285 -0.09077,0.507649 -0.06069,0.914704 0.0266,1.329169 0.01591,0.07557 0.01802,0.31207 0.03936,0.377885 0.13835,0.426797 0.520909,0.436199 0.756802,0.233463 0.0079,-1.422694 0.0068,-3.337481 -0.672537,-3.202802 z"
         sodipodi:nodetypes="cssscc"
         transform="matrix(-0.06433892,-0.03124845,-0.04098193,0.02558287,36.827876,41.099264)" />
      <path
         id="path15642"
         style="fill:#7d512c;fill-opacity:1;stroke-width:0.184471;filter:url(#filter83766-6)"
         d="m 39.488636,25.097078 c -0.235892,0.202736 -0.0381,0.635186 -0.150225,1.262285 -0.09077,0.507649 -0.06069,0.914704 0.0266,1.329169 0.01591,0.07557 0.01802,0.31207 0.03936,0.377885 0.13835,0.426797 0.520909,0.436199 0.756802,0.233463 0.0079,-1.422694 0.0068,-3.337481 -0.672537,-3.202802 z"
         sodipodi:nodetypes="cssscc"
         transform="matrix(-0.20197877,0,0,0.14585639,28.049756,40.351883)" />
      <path
         id="path15644"
         style="fill:#7d512c;fill-opacity:1;stroke-width:0.184471;filter:url(#filter83766-6)"
         d="m 39.488636,25.097078 c -0.235892,0.202736 -0.0381,0.635186 -0.150225,1.262285 -0.09077,0.507649 -0.06069,0.914704 0.0266,1.329169 0.01591,0.07557 0.01802,0.31207 0.03936,0.377885 0.13835,0.426797 0.520909,0.436199 0.756802,0.233463 0.0079,-1.422694 0.0068,-3.337481 -0.672537,-3.202802 z"
         sodipodi:nodetypes="cssscc"
         transform="matrix(-0.15147323,-0.1336087,-0.09648382,0.10938446,26.657408,47.756249)" />
    </g>
  </g>
  <g
     inkscape:groupmode="layer"
     id="layer2"
     inkscape:label="cabane"
     style="display:inline"
     sodipodi:insensitive="true">
    <path
       id="rect1862"
       style="display:inline;fill:#552200;fill-opacity:1;stroke-width:0.199991"
       d="M -2.0194568,-2.361486 V 159.00471 H 211.53314 V -2.361486 Z M 16.349709,11.75802 H 194.69417 V 142.86749 H 16.349709 Z" />
    <rect
       style="display:inline;fill:#552200;fill-opacity:1;stroke-width:0.182028"
       id="rect4272"
       width="181.14711"
       height="8.9858103"
       x="15.129798"
       y="76.925751" />
    <rect
       style="display:inline;fill:#552200;fill-opacity:1;stroke-width:0.15636"
       id="rect4354"
       width="133.66194"
       height="8.9858418"
       x="11.70877"
       y="-102.79955"
       transform="matrix(0.01028605,0.9999471,-0.99994035,0.01092268,0,0)" />
    <ellipse
       style="display:inline;fill:#783000;fill-opacity:1;stroke-width:0.302546"
       id="path4458"
       cx="99.634453"
       cy="79.280853"
       rx="4.1639056"
       ry="7.6184044" />
  </g>
</svg>
